<svg xmlns="http://www.w3.org/2000/svg" viewBox="0 0 512 512" role="img" aria-label="Earthbound icon">
<rect width="512" height="512" rx="112" fill="#06111f"/>
<circle cx="256" cy="256" r="174" fill="#1d6f9f"/>
<path d="M130 195c52-74 153-112 244-55-13 31-43 47-72 48-24 1-42 16-41 39 1 17-16 30-34 24-33-11-58-28-97-56Zm48 163c24-29 53-39 80-26 20 10 36 8 51-7 23-23 54-26 84-9-33 69-103 116-184 111-15-20-25-42-31-69Z" fill="#55b66c"/>
<path d="M86 256a170 170 0 0 0 340 0" fill="none" stroke="#b8ecff" stroke-width="18" stroke-linecap="round" opacity=".55"/>
<path d="M343 115l42-48 7 63 57 27-62 12-19 61-26-55-65-3 49-39Z" fill="#fff"/>
</svg>